<?xml version="1.0" encoding="UTF-8" standalone="no" ?>
<!DOCTYPE svg PUBLIC "-//W3C//DTD SVG 1.1//EN" "http://www.w3.org/Graphics/SVG/1.1/DTD/svg11.dtd">
<svg xmlns="http://www.w3.org/2000/svg" xmlns:xlink="http://www.w3.org/1999/xlink" version="1.1" width="1280" height="1024" viewBox="0 0 1280 1024" xml:space="preserve">
<desc>Created with Fabric.js 5.3.0</desc>
<defs>
</defs>
<g transform="matrix(1 0 0 1 640 512)" id="background-logo"  >
<rect style="stroke: none; stroke-width: 0; stroke-dasharray: none; stroke-linecap: butt; stroke-dashoffset: 0; stroke-linejoin: miter; stroke-miterlimit: 4; fill: rgb(255,255,255); fill-rule: nonzero; opacity: 1;"  paint-order="stroke"  x="-640" y="-512" rx="0" ry="0" width="1280" height="1024" />
</g>
<g transform="matrix(1.9211538461538462 0 0 1.9211538461538462 640 387.45215540425977)" id="logo-logo"  >
<g style=""  paint-order="stroke"   >
		<g transform="matrix(0.3550701674419995 0 0 0.3550701674419995 -0.00000541481995242066 11.789417476313929)"  >
<path style="stroke: none; stroke-width: 1; stroke-dasharray: none; stroke-linecap: butt; stroke-dashoffset: 0; stroke-linejoin: miter; stroke-miterlimit: 4; fill: rgb(225,245,255); fill-rule: nonzero; opacity: 1;"  paint-order="stroke"  transform=" translate(-368.58680725, -422.78459929999997)" d="M 368.5868225 601.1826172 C 297.0657043 601.1826172 238.8797913 542.9967041 238.8797913 471.4756165 C 238.8797913 442.427002 248.743042 413.8945008 266.6517334 391.13714600000003 L 267.0826111 390.58920290000003 L 368.58682250000004 244.38658140000004 L 410.49542240000005 304.7507019 L 419.81442260000006 402.03512570000004 L 455.64172360000003 369.77133180000004 L 470.08874510000004 390.58691410000006 L 470.52075190000005 391.13714600000003 C 488.43057250000004 413.89450070000004 498.2938232000001 442.427002 498.2938232000001 471.4756165 C 498.2938232 542.9967041 440.1079102 601.1826172 368.5868225 601.1826172 z" stroke-linecap="round" />
</g>
		<g transform="matrix(0.3550701674419995 0 0 0.3550701674419995 -23.548275039759005 8.839879669816412)"  >
<linearGradient id="SVGID_2_35458" gradientUnits="userSpaceOnUse" gradientTransform="matrix(1 0 0 1 0 0)"  x1="301.4209595" y1="414.4776611" x2="411.0868225" y2="414.4776611">
<stop offset="0%" style="stop-color:rgb(238,178,50);stop-opacity: 1"/>
<stop offset="100%" style="stop-color:rgb(232,102,27);stop-opacity: 1"/>
</linearGradient>
<path style="stroke: none; stroke-width: 1; stroke-dasharray: none; stroke-linecap: butt; stroke-dashoffset: 0; stroke-linejoin: miter; stroke-miterlimit: 4; fill: url(#SVGID_2_35458); fill-rule: nonzero; opacity: 1;"  paint-order="stroke"  transform=" translate(-302.26676184999997, -414.477684)" d="M 368.586792 454.207428 L 306.9331055 454.207428 L 380.6549683 282.5097351 L 368.586792 215.4219665 L 368.586792 215.4075775 L 368.5818176 215.4147034 L 368.57684320000004 215.42196660000002 L 254.8638763 379.2311096 C 235.5063629 403.8299255 223.8785553 435.1235962 223.8785553 468.8396606 C 223.8785553 548.7550048 288.6628723 613.5421142 368.57684329999995 613.5474853000001 C 368.5786133 613.5474853000001 368.58007819999995 613.5476074000001 368.58181769999993 613.5476074000001 C 368.5834350999999 613.5476074000001 368.58517459999996 613.5477905 368.5867920999999 613.5477905 L 368.5867920999999 613.5474853000001 L 380.6549683999999 570.4223632000001 L 368.5867920999999 570.1862182000001 L 368.5867920999999 454.207428 z" stroke-linecap="round" />
</g>
		<g transform="matrix(0.3550701674419995 0 0 0.3550701674419995 25.68722664069088 8.843794140877407)"  >
<path style="stroke: none; stroke-width: 1; stroke-dasharray: none; stroke-linecap: butt; stroke-dashoffset: 0; stroke-linejoin: miter; stroke-miterlimit: 4; fill: rgb(238,178,50); fill-rule: nonzero; opacity: 1;"  paint-order="stroke"  transform=" translate(-440.93090825, -414.48870850000003)" d="M 482.2996521 379.2311096 L 449.9270325 332.58801270000004 L 430.2391358 364.18988040000005 L 430.2391358 304.2453919000001 L 368.5768433 215.42962650000007 L 368.5768433 426.60098270000003 L 430.2391358 426.60098270000003 L 368.5768433 570.1860962000001 L 368.5768433 613.5477905 C 448.4955445 613.5477905 513.2849732 548.7583618 513.2849732 468.8396606 C 513.2849731 435.1235962 501.6572876 403.8299255 482.2996521 379.2311096 z M 397.8443604 581.1751709 L 395.64215090000005 572.6525879 C 428.30117800000005 564.1299439 455.38851930000004 540.3018798999999 468.09539800000005 508.92016599999994 L 476.26556400000004 512.2235106999999 C 462.5237122 546.1817627 433.2120972 571.9699097 397.8443604 581.1751709 z M 474.3716736 486.7437439 C 475.3627014 480.86370850000003 475.84713750000003 474.8516846 475.84713750000003 468.8396606 L 484.6560364 468.8396606 C 484.6560364 475.3362426 484.127533 481.8547363 483.0484619 488.2192077 L 474.3716736 486.7437439 z" stroke-linecap="round" />
</g>
		<g transform="matrix(0.3550701674419995 0 0 0.3550701674419995 0 0)"  >
<path style="stroke: none; stroke-width: 1; stroke-dasharray: none; stroke-linecap: butt; stroke-dashoffset: 0; stroke-linejoin: miter; stroke-miterlimit: 4; fill: rgb(12,20,47); fill-rule: nonzero; opacity: 1;"  paint-order="stroke"  transform=" translate(-368.5868224999999, -389.58153534999997)" d="M 535.5595093 340.0755005 L 368.5868225 99.5485611 L 201.61410519999998 340.0755081 C 173.35952759999998 376.764656 157.81182859999998 422.460823 157.81182859999998 468.83966829999997 C 157.81182859999998 585.050972 252.37536619999997 679.6145096 368.5868225 679.6145096 C 484.8203125 679.6145096 579.3618164 585.050972 579.3618164 468.8396683 C 579.3618164 422.4608154 563.8140869 376.7646484 535.5595093 340.0755005 z M 368.5868225 646.5811157 C 270.5877991 646.5811157 190.84519959999997 566.8386841 190.84519959999997 468.83966060000006 C 190.84519959999997 429.4197692000001 204.12467959999998 390.68270870000003 228.26110839999996 359.6312561000001 L 368.5868225 157.48909 L 508.91265869999995 359.6312561 C 533.0489501999999 390.6827087 546.3284302 429.4197693 546.3284302 468.8396606 C 546.3284302 566.8386841 466.5858154 646.5811157 368.5868225 646.5811157 z" stroke-linecap="round" />
</g>
</g>
</g>
<g transform="matrix(1.9211538461538467 0 0 1.9211538461538467 640.9951625731691 686.4491826334115)" id="text-logo"  >
<g style=""  paint-order="stroke"   >
		<g transform="matrix(1 0 0 1 0 0)" id="text-logo-path-0"  >
<linearGradient id="SVGID_35459" gradientUnits="userSpaceOnUse" gradientTransform="matrix(1 0 0 1 2.6599999999999966 -52.39)"  x1="246.71600141143796" y1="-12.664359999999931" x2="246.7160014114379" y2="70.95564000000005">
<stop offset="0%" style="stop-color:rgb(238,178,50);stop-opacity: 1"/>
<stop offset="100%" style="stop-color:rgb(234,134,36);stop-opacity: 1"/>
</linearGradient>
<path style="stroke: none; stroke-width: 0; stroke-dasharray: none; stroke-linecap: butt; stroke-dashoffset: 0; stroke-linejoin: miter; stroke-miterlimit: 4; fill: url(#SVGID_35459); fill-rule: nonzero; opacity: 1;"  paint-order="stroke"  transform=" translate(-174.67499999999998, 25.9)" d="M 37.74 -37.89 C 37.74 -46.47 31.45 -51.8 20.28 -51.8 L 3.55 -51.8 C 2.89 -51.8 2.66 -51.58 2.66 -50.91 L 2.66 -0.89 C 2.66 -0.22 2.89 0 3.55 0 L 15.54 0 C 16.21 0 16.43 -0.22 16.43 -0.89 L 16.43 -20.2 L 20.72 -20.2 C 30.04 -20.2 37.74 -25.16 37.74 -36.48 Z M 16.43 -41.59 L 19.98 -41.59 C 22.13 -41.59 23.98 -39.89 23.98 -37 L 23.98 -36.11 C 23.98 -32.78 22.13 -31.15 20.2 -31.15 L 16.43 -31.15 Z M 44.7 -0.89 C 44.7 -0.22 44.92 0 45.58 0 L 73.48 0 C 74.15 0 74.37 -0.22 74.37 -0.89 L 74.37 -12.14 C 74.37 -12.8 74.15 -13.02 73.48 -13.02 L 58.46 -13.02 L 58.46 -20.87 L 71.26 -20.87 C 71.93 -20.87 72.15 -21.09 72.15 -21.76 L 72.15 -33 C 72.15 -33.67 71.93 -33.89 71.26 -33.89 L 58.46 -33.89 L 58.46 -38.78 L 73.48 -38.78 C 74.15 -38.78 74.37 -39 74.37 -39.66 L 74.37 -50.91 C 74.37 -51.58 74.15 -51.8 73.48 -51.8 L 45.58 -51.8 C 44.92 -51.8 44.7 -51.58 44.7 -50.91 Z M 109.82 -0.89 C 109.96 -0.3 110.33 0 110.93 0 L 122.91 0 C 123.51 0 123.73 -0.3 123.58 -0.89 L 110.04 -50.91 C 109.89 -51.5 109.52 -51.8 108.93 -51.8 L 93.98 -51.8 C 93.39 -51.8 93.02 -51.5 92.87 -50.91 L 79.33 -0.89 C 79.18 -0.3 79.4 0 79.99 0 L 91.98 0 C 92.57 0 92.94 -0.3 93.09 -0.89 L 95.09 -8.14 L 107.82 -8.14 Z M 101.45 -31.75 L 104.34 -21.16 L 98.57 -21.16 Z M 154.66 -0.81 C 154.96 -0.22 155.25 0 155.92 0 L 168.57 0 C 169.24 0 169.39 -0.22 169.09 -0.81 L 156.14 -29.01 L 168.13 -50.99 C 168.42 -51.58 168.35 -51.8 167.68 -51.8 L 155.03 -51.8 C 154.36 -51.8 153.99 -51.58 153.7 -50.99 L 142.89 -30.71 L 142.89 -50.91 C 142.89 -51.58 142.67 -51.8 142.01 -51.8 L 130.02 -51.8 C 129.35 -51.8 129.13 -51.58 129.13 -50.91 L 129.13 -0.89 C 129.13 -0.22 129.35 0 130.02 0 L 142.01 0 C 142.67 0 142.89 -0.22 142.89 -0.89 L 142.89 -14.43 L 145.93 -19.98 Z M 174.71 -0.89 C 174.71 -0.22 174.94 0 175.6 0 L 185.07 0 C 185.74 0 185.96 -0.22 185.96 -0.89 L 185.96 -27.16 L 191.44 -6.73 C 191.59 -6.14 191.88 -5.92 192.55 -5.92 L 200.69 -5.92 C 201.35 -5.92 201.65 -6.14 201.8 -6.73 L 207.35 -27.45 L 207.35 -0.89 C 207.35 -0.22 207.57 0 208.24 0 L 217.71 0 C 218.37 0 218.6 -0.22 218.6 -0.89 L 218.6 -50.91 C 218.6 -51.58 218.37 -51.8 217.71 -51.8 L 204.09 -51.8 C 203.43 -51.8 203.13 -51.58 202.98 -50.99 L 196.99 -26.64 L 190.99 -50.99 C 190.85 -51.58 190.55 -51.8 189.88 -51.8 L 175.6 -51.8 C 174.94 -51.8 174.71 -51.58 174.71 -50.91 Z M 225.55 -32.56 L 225.55 -19.31 C 225.55 -5.4 233.25 0.59 245.31 0.59 C 257.37 0.59 265.07 -5.4 265.07 -19.31 L 265.07 -32.56 C 265.07 -46.4 257.37 -52.39 245.31 -52.39 C 233.25 -52.39 225.55 -46.4 225.55 -32.56 Z M 239.32 -32.19 C 239.32 -39.29 241.09 -41.44 245.31 -41.44 C 249.53 -41.44 251.3 -39.29 251.3 -32.19 L 251.3 -19.68 C 251.3 -12.51 249.53 -10.36 245.31 -10.36 C 241.09 -10.36 239.32 -12.51 239.32 -19.68 Z M 272.02 -0.89 C 272.02 -0.22 272.25 0 272.91 0 L 289.78 0 C 301.55 0 310.06 -7.7 310.06 -20.87 L 310.06 -30.86 C 310.06 -44.1 301.55 -51.8 289.78 -51.8 L 272.91 -51.8 C 272.25 -51.8 272.02 -51.58 272.02 -50.91 Z M 285.79 -38.63 L 289.12 -38.63 C 294 -38.63 296.3 -35.22 296.3 -29.08 L 296.3 -22.72 C 296.3 -16.58 294 -13.17 289.12 -13.17 L 285.79 -13.17 Z M 317.02 -0.89 C 317.02 -0.22 317.24 0 317.9 0 L 345.8 0 C 346.47 0 346.69 -0.22 346.69 -0.89 L 346.69 -12.14 C 346.69 -12.8 346.47 -13.02 345.8 -13.02 L 330.78 -13.02 L 330.78 -20.87 L 343.58 -20.87 C 344.25 -20.87 344.47 -21.09 344.47 -21.76 L 344.47 -33 C 344.47 -33.67 344.25 -33.89 343.58 -33.89 L 330.78 -33.89 L 330.78 -38.78 L 345.8 -38.78 C 346.47 -38.78 346.69 -39 346.69 -39.66 L 346.69 -50.91 C 346.69 -51.58 346.47 -51.8 345.8 -51.8 L 317.9 -51.8 C 317.24 -51.8 317.02 -51.58 317.02 -50.91 Z" stroke-linecap="round" />
</g>
</g>
</g>
<g transform="matrix(1.9211538461538467 0 0 1.9211538461538467 640.3496456907711 793.7280297929617)" id="tagline-e640eebb-45fe-495a-b0f1-b57940561203-logo"  >
<g style=""  paint-order="stroke"   >
		<g transform="matrix(1 0 0 1 0 0)" id="tagline-e640eebb-45fe-495a-b0f1-b57940561203-logo-path-0"  >
<path style="stroke: none; stroke-width: 0; stroke-dasharray: none; stroke-linecap: butt; stroke-dashoffset: 0; stroke-linejoin: miter; stroke-miterlimit: 4; fill: rgb(13,21,46); fill-rule: nonzero; opacity: 1;"  paint-order="stroke"  transform=" translate(-158.06, 9.8)" d="M 1.34 -0.34 C 1.34 -0.08 1.43 0 1.68 0 L 11.4 0 C 11.65 0 11.73 -0.08 11.73 -0.34 L 11.73 -2.35 C 11.73 -2.6 11.65 -2.69 11.4 -2.69 L 4.31 -2.69 L 4.31 -9.02 L 10.56 -9.02 C 10.81 -9.02 10.89 -9.1 10.89 -9.35 L 10.89 -11.37 C 10.89 -11.62 10.81 -11.7 10.56 -11.7 L 4.31 -11.7 L 4.31 -16.91 L 11.4 -16.91 C 11.65 -16.91 11.73 -17 11.73 -17.25 L 11.73 -19.26 C 11.73 -19.52 11.65 -19.6 11.4 -19.6 L 1.68 -19.6 C 1.43 -19.6 1.34 -19.52 1.34 -19.26 Z M 22.48 -0.34 C 22.48 -0.11 22.6 0 22.82 0 L 24.84 0 C 25.06 0 25.17 -0.11 25.17 -0.34 L 25.17 -14.03 L 31.22 -0.31 C 31.3 -0.11 31.47 0 31.7 0 L 33.21 0 C 33.43 0 33.54 -0.11 33.54 -0.34 L 33.54 -19.26 C 33.54 -19.49 33.43 -19.6 33.21 -19.6 L 31.19 -19.6 C 30.97 -19.6 30.86 -19.49 30.86 -19.26 L 30.86 -7.59 L 25.7 -19.29 C 25.62 -19.49 25.45 -19.6 25.23 -19.6 L 22.82 -19.6 C 22.6 -19.6 22.48 -19.49 22.48 -19.26 Z M 44.63 -0.34 C 44.63 -0.08 44.72 0 44.97 0 L 54.68 0 C 54.94 0 55.02 -0.08 55.02 -0.34 L 55.02 -2.35 C 55.02 -2.6 54.94 -2.69 54.68 -2.69 L 47.6 -2.69 L 47.6 -9.02 L 53.84 -9.02 C 54.1 -9.02 54.18 -9.1 54.18 -9.35 L 54.18 -11.37 C 54.18 -11.62 54.1 -11.7 53.84 -11.7 L 47.6 -11.7 L 47.6 -16.91 L 54.68 -16.91 C 54.94 -16.91 55.02 -17 55.02 -17.25 L 55.02 -19.26 C 55.02 -19.52 54.94 -19.6 54.68 -19.6 L 44.97 -19.6 C 44.72 -19.6 44.63 -19.52 44.63 -19.26 Z M 74.59 -0.31 C 74.7 -0.08 74.82 0 75.07 0 L 77.62 0 C 77.87 0 77.92 -0.08 77.81 -0.31 L 73.98 -8.65 C 75.96 -9.41 77.36 -11.14 77.36 -14.08 L 77.36 -14.59 C 77.36 -17.67 75.18 -19.6 71.26 -19.6 L 66.11 -19.6 C 65.86 -19.6 65.77 -19.52 65.77 -19.26 L 65.77 -0.34 C 65.77 -0.08 65.86 0 66.11 0 L 68.4 0 C 68.66 0 68.74 -0.08 68.74 -0.34 L 68.74 -8.2 L 70.98 -8.2 Z M 68.74 -16.86 L 71.01 -16.86 C 73.33 -16.86 74.4 -15.96 74.4 -14.36 L 74.4 -13.92 C 74.4 -12.1 73.33 -11.23 71.12 -11.23 L 68.74 -11.23 Z M 99.43 -13.16 C 99.29 -17.44 96.66 -19.82 93.1 -19.82 C 89.46 -19.82 86.77 -17.56 86.77 -12.46 L 86.77 -7.17 C 86.77 -2.04 89.46 0.22 93.1 0.22 C 96.74 0.22 99.43 -2.3 99.43 -6.83 L 99.43 -8.85 C 99.43 -9.1 99.34 -9.18 99.09 -9.18 L 93.38 -9.18 C 93.13 -9.18 93.04 -9.1 93.04 -8.85 L 93.04 -6.83 C 93.04 -6.58 93.13 -6.5 93.38 -6.5 L 96.4 -6.5 C 96.32 -3.78 95.2 -2.52 93.07 -2.52 C 90.83 -2.52 89.74 -3.86 89.74 -7.36 L 89.74 -12.26 C 89.74 -15.74 90.83 -17.08 93.07 -17.08 C 95.23 -17.08 96.32 -15.82 96.4 -13.16 C 96.4 -12.91 96.49 -12.82 96.74 -12.82 L 99.09 -12.82 C 99.34 -12.82 99.43 -12.91 99.43 -13.16 Z M 112.2 -19.29 C 112.11 -19.49 111.94 -19.6 111.72 -19.6 L 109.42 -19.6 C 109.2 -19.6 109.14 -19.49 109.23 -19.29 L 114.66 -7.7 L 114.66 -0.34 C 114.66 -0.08 114.74 0 115 0 L 117.29 0 C 117.54 0 117.63 -0.08 117.63 -0.34 L 117.63 -7.7 L 123.06 -19.29 C 123.14 -19.49 123.09 -19.6 122.86 -19.6 L 120.57 -19.6 C 120.34 -19.6 120.18 -19.49 120.09 -19.29 L 116.14 -10.86 Z M 146.19 -19.6 C 145.94 -19.6 145.85 -19.52 145.85 -19.26 L 145.85 -6.47 C 145.85 -1.99 148.06 0.22 152.35 0.22 C 156.6 0.22 158.84 -1.99 158.84 -6.47 L 158.84 -19.26 C 158.84 -19.52 158.76 -19.6 158.51 -19.6 L 156.21 -19.6 C 155.96 -19.6 155.88 -19.52 155.88 -19.26 L 155.88 -6.61 C 155.88 -3.98 154.92 -2.52 152.35 -2.52 C 149.74 -2.52 148.82 -3.98 148.82 -6.61 L 148.82 -19.26 C 148.82 -19.52 148.74 -19.6 148.48 -19.6 Z M 169.93 -0.34 C 169.93 -0.11 170.04 0 170.27 0 L 172.28 0 C 172.51 0 172.62 -0.11 172.62 -0.34 L 172.62 -14.03 L 178.67 -0.31 C 178.75 -0.11 178.92 0 179.14 0 L 180.66 0 C 180.88 0 180.99 -0.11 180.99 -0.34 L 180.99 -19.26 C 180.99 -19.49 180.88 -19.6 180.66 -19.6 L 178.64 -19.6 C 178.42 -19.6 178.3 -19.49 178.3 -19.26 L 178.3 -7.59 L 173.15 -19.29 C 173.07 -19.49 172.9 -19.6 172.68 -19.6 L 170.27 -19.6 C 170.04 -19.6 169.93 -19.49 169.93 -19.26 Z M 192.08 -0.34 C 192.08 -0.08 192.16 0 192.42 0 L 201.57 0 C 201.82 0 201.91 -0.08 201.91 -0.34 L 201.91 -2.35 C 201.91 -2.6 201.82 -2.69 201.57 -2.69 L 195.05 -2.69 L 195.05 -19.26 C 195.05 -19.52 194.96 -19.6 194.71 -19.6 L 192.42 -19.6 C 192.16 -19.6 192.08 -19.52 192.08 -19.26 Z M 211.65 -12.32 L 211.65 -7.31 C 211.65 -2.41 214.65 0.22 218.29 0.22 C 221.93 0.22 224.92 -2.41 224.92 -7.31 L 224.92 -12.32 C 224.92 -17.19 221.93 -19.82 218.29 -19.82 C 214.65 -19.82 211.65 -17.19 211.65 -12.32 Z M 214.62 -12.18 C 214.62 -15.54 215.88 -17.08 218.29 -17.08 C 220.67 -17.08 221.96 -15.54 221.96 -12.18 L 221.96 -7.45 C 221.96 -4.06 220.67 -2.52 218.29 -2.52 C 215.88 -2.52 214.62 -4.06 214.62 -7.45 Z M 245.08 -6.83 C 244.83 -6.83 244.75 -6.75 244.75 -6.5 C 244.66 -3.78 243.63 -2.52 241.53 -2.52 C 239.34 -2.52 238.31 -4.23 238.31 -7.73 L 238.31 -11.9 C 238.31 -15.37 239.34 -17.08 241.53 -17.08 C 243.63 -17.08 244.66 -15.85 244.75 -13.16 C 244.75 -12.91 244.83 -12.82 245.08 -12.82 L 247.38 -12.82 C 247.63 -12.82 247.72 -12.91 247.72 -13.16 C 247.58 -17.44 245 -19.82 241.53 -19.82 C 237.97 -19.82 235.34 -17.14 235.34 -12.04 L 235.34 -7.59 C 235.34 -2.46 237.97 0.22 241.53 0.22 C 245 0.22 247.58 -2.18 247.72 -6.5 C 247.72 -6.75 247.63 -6.83 247.38 -6.83 Z M 267.29 -0.31 C 267.4 -0.08 267.51 0 267.76 0 L 270.31 0 C 270.56 0 270.62 -0.08 270.51 -0.31 L 265.61 -10.98 L 270.14 -19.29 C 270.26 -19.52 270.23 -19.6 269.98 -19.6 L 267.43 -19.6 C 267.18 -19.6 267.04 -19.52 266.92 -19.29 L 261.44 -9.02 L 261.44 -19.26 C 261.44 -19.52 261.35 -19.6 261.1 -19.6 L 258.8 -19.6 C 258.55 -19.6 258.47 -19.52 258.47 -19.26 L 258.47 -0.34 C 258.47 -0.08 258.55 0 258.8 0 L 261.1 0 C 261.35 0 261.44 -0.08 261.44 -0.34 L 261.44 -4.96 L 263.45 -8.68 Z M 280.64 -0.34 C 280.64 -0.08 280.73 0 280.98 0 L 290.7 0 C 290.95 0 291.03 -0.08 291.03 -0.34 L 291.03 -2.35 C 291.03 -2.6 290.95 -2.69 290.7 -2.69 L 283.61 -2.69 L 283.61 -9.02 L 289.86 -9.02 C 290.11 -9.02 290.19 -9.1 290.19 -9.35 L 290.19 -11.37 C 290.19 -11.62 290.11 -11.7 289.86 -11.7 L 283.61 -11.7 L 283.61 -16.91 L 290.7 -16.91 C 290.95 -16.91 291.03 -17 291.03 -17.25 L 291.03 -19.26 C 291.03 -19.52 290.95 -19.6 290.7 -19.6 L 280.98 -19.6 C 280.73 -19.6 280.64 -19.52 280.64 -19.26 Z M 301.78 -0.34 C 301.78 -0.08 301.87 0 302.12 0 L 307.44 0 C 311.7 0 314.78 -2.91 314.78 -7.9 L 314.78 -11.68 C 314.78 -16.69 311.7 -19.6 307.44 -19.6 L 302.12 -19.6 C 301.87 -19.6 301.78 -19.52 301.78 -19.26 Z M 304.75 -16.86 L 307.47 -16.86 C 310.44 -16.86 311.81 -14.92 311.81 -11.54 L 311.81 -8.04 C 311.81 -4.68 310.44 -2.74 307.47 -2.74 L 304.75 -2.74 Z" stroke-linecap="round" />
</g>
</g>
</g>
</svg>